# xmcd CD database file
#
# Track frame offsets:
#	150
#	13591
#	25581
#	38353
#	50283
#	66263
#	79148
#	90644
#	104507
#	112676
#	128395
#	147074
#
# Disc length: 2162 seconds
#
# Revision: 0
# Processed by: cddbd v1.5.1PL2 Copyright (c) Steve Scherf et al.
# Submitted via: CDex 1.51
#
DISCID=8308700c
DTITLE=Gypsy Carns - Gospel Train Coming
DYEAR=2006
DGENRE=Blues
TTITLE0=Gospel Train Coming 
TTITLE1=Trimmed And Burning 
TTITLE2=John The Revelator
TTITLE3=Prayin Blues
TTITLE4=Gonna See The King 
TTITLE5=Your Close Friends
TTITLE6=Oh, What A Morning 
TTITLE7=God Don't Never Change 
TTITLE8=Dark Eternity
TTITLE9=Soul Of A Man
TTITLE10=Satan Don't Pay My Bills 
TTITLE11=Preachin Blues
EXTD=YEAR: 2006
EXTT0=
EXTT1=
EXTT2=
EXTT3=
EXTT4=
EXTT5=
EXTT6=
EXTT7=
EXTT8=
EXTT9=
EXTT10=
EXTT11=
PLAYORDER=
